<svg width="95" height="77" viewBox="0 0 95 77" fill="none" xmlns="http://www.w3.org/2000/svg">
<path fill-rule="evenodd" clip-rule="evenodd" d="M74.4018 46.0209C74.903 43.5759 75.1662 41.0442 75.1662 38.451C75.1662 17.7403 58.3769 0.951019 37.6662 0.951019C16.9555 0.951019 0.166199 17.7403 0.166199 38.451C0.166199 58.2239 15.4695 74.4225 34.8781 75.8489V76.1379H49.6781C55.2528 76.1379 59.8654 75.6445 63.5161 74.6579C67.1668 73.6219 70.0774 71.5499 72.2481 68.4419C74.4188 65.2845 75.5041 60.6965 75.5041 54.6779C75.5041 51.3286 75.1367 48.4429 74.4018 46.0209ZM74.4018 46.0209C73.9027 44.376 73.2342 42.945 72.3961 41.7279C70.3734 38.7185 67.5121 36.6712 63.8121 35.5859C60.1614 34.5005 55.4501 33.9579 49.6781 33.9579H34.8781V75.8489C35.7986 75.9166 36.7284 75.951 37.6662 75.951C55.7837 75.951 70.9003 63.1029 74.4018 46.0209ZM60.8521 61.4859C60.6054 63.9525 60.1861 65.4819 59.5941 66.0739C59.2488 66.4192 58.3608 66.6905 56.9301 66.8879C55.5488 67.0359 53.9454 67.1099 52.1201 67.1099C50.3441 67.1099 49.0368 67.0605 48.1981 66.9619V42.3939C49.4808 42.2952 50.4428 42.2459 51.0841 42.2459C54.6854 42.2459 57.2261 43.0599 58.7061 44.6879C59.6434 45.6252 60.2848 46.8832 60.6301 48.4619C61.0248 49.9912 61.2221 52.0632 61.2221 54.6779C61.2221 56.7499 61.0988 59.0192 60.8521 61.4859ZM82.6012 74.7319C83.9332 76.0639 85.6105 76.7299 87.6332 76.7299C89.8038 76.7299 91.5305 76.0639 92.8132 74.7319C94.1452 73.3999 94.8112 71.5992 94.8112 69.3299C94.8112 67.3565 94.1452 65.7039 92.8132 64.3719C91.4812 62.9905 89.8285 62.2999 87.8552 62.2999C85.7832 62.2999 84.0565 62.9905 82.6752 64.3719C81.3432 65.7039 80.6772 67.3565 80.6772 69.3299C80.6772 71.5992 81.3185 73.3999 82.6012 74.7319Z" fill="#1E1E1E"/>
</svg>
